<?xml version="1.0" encoding="UTF-8" standalone="no"?>
<!-- Created with Inkscape (http://www.inkscape.org/) -->

<svg
   width="25.381334mm"
   height="52.916656mm"
   viewBox="0 0 25.381334 52.916656"
   version="1.1"
   id="svg5"
   inkscape:version="1.1.1 (3bf5ae0d25, 2021-09-20)"
   sodipodi:docname="cc-logo.svg"
   xmlns:inkscape="http://www.inkscape.org/namespaces/inkscape"
   xmlns:sodipodi="http://sodipodi.sourceforge.net/DTD/sodipodi-0.dtd"
   xmlns="http://www.w3.org/2000/svg"
   xmlns:svg="http://www.w3.org/2000/svg">
  <sodipodi:namedview
     id="namedview7"
     pagecolor="#ffffff"
     bordercolor="#666666"
     borderopacity="1.0"
     inkscape:pageshadow="2"
     inkscape:pageopacity="0.0"
     inkscape:pagecheckerboard="false"
     inkscape:document-units="px"
     showgrid="true"
     inkscape:zoom="0.77771465"
     inkscape:cx="-174.87134"
     inkscape:cy="464.82344"
     inkscape:window-width="1471"
     inkscape:window-height="1088"
     inkscape:window-x="1824"
     inkscape:window-y="533"
     inkscape:window-maximized="0"
     inkscape:current-layer="layer1"
     fit-margin-top="0"
     fit-margin-left="0"
     fit-margin-right="0"
     fit-margin-bottom="0">
    <inkscape:grid
       type="xygrid"
       id="grid432"
       originx="-23.27551"
       originy="-25.361082" />
  </sodipodi:namedview>
  <defs
     id="defs2" />
  <g
     inkscape:label="Layer 1"
     inkscape:groupmode="layer"
     id="layer1"
     style="display:inline"
     transform="translate(-23.27551,-25.361082)">
    <g
       transform="matrix(0.01702082,0,0,-0.01702082,-6.0210076,95.468717)"
       fill="#000000"
       stroke="none"
       id="g87"
       style="display:inline">
      <path
         d="m 2282,4101 c -40,-10 -112,-38 -160,-61 -70,-35 -103,-60 -177,-134 -102,-103 -144,-168 -189,-293 l -31,-88 -3,-920 c -2,-813 -1,-929 13,-999 71,-349 375,-597 732,-596 299,1 572,186 685,464 52,127 59,200 56,631 l -3,390 -132,3 -133,3 v -389 c 0,-221 -4,-413 -10,-443 -6,-30 -25,-86 -44,-125 -137,-290 -527,-354 -757,-125 -61,61 -97,123 -123,210 -14,48 -16,154 -16,935 0,940 -1,922 50,1029 30,64 102,142 172,188 82,52 164,72 280,67 83,-3 103,-8 172,-41 135,-64 235,-190 265,-335 7,-33 11,-197 11,-442 v -390 h 135 135 v 389 c 0,304 -3,408 -15,476 -48,273 -235,491 -500,581 -107,37 -300,44 -413,15 z"
         id="path83" />
      <path
         d="m 2379,3706 c -105,-28 -192,-106 -229,-204 -20,-53 -20,-71 -18,-950 l 3,-897 24,-50 c 32,-63 93,-124 156,-156 43,-21 64,-24 150,-24 89,0 106,3 150,27 62,32 129,103 158,166 21,45 22,61 25,465 l 3,417 h -136 -135 v -388 c 0,-364 -1,-390 -18,-405 -26,-24 -75,-21 -98,4 -18,20 -19,51 -22,845 -2,725 0,828 13,854 20,39 59,49 93,23 l 27,-20 3,-387 2,-386 h 136 135 l -3,413 -3,412 -26,55 c -47,97 -121,158 -224,185 -70,18 -104,18 -166,1 z"
         id="path85" />
    </g>
    <path
       style="fill:#a0a0a0;stroke:none;stroke-width:0.164143"
       d="m 33.339464,77.899047 c -1.611908,-0.34737 -2.87245,-0.86687 -4.18929,-1.72651 -2.653827,-1.73244 -4.465845,-4.20383 -5.370306,-7.32449 l -0.371034,-1.28018 0.0061,-16.08598 0.0061,-16.08599 0.550333,-1.45685 c 0.722985,-1.9139 1.817163,-3.51825 3.490879,-5.11853 2.275605,-2.17577 4.57482,-3.16574 7.682768,-3.30797 2.61842,-0.11983 4.18607,0.19073 6.31949,1.25194 3.5345,1.75812 5.91955,4.87686 6.7264,8.79556 0.21359,1.03737 0.2909,2.73507 0.36814,8.08402 l 0.0978,6.77089 h -2.24197 -2.24198 l -0.0118,-3.81632 c -0.006,-2.09897 -0.0653,-5.37156 -0.13075,-7.27242 l -0.11896,-3.45611 -0.60622,-1.27653 c -0.82629,-1.73992 -2.25165,-3.16476 -4.00197,-4.00051 -1.28101,-0.61166 -1.29335,-0.61387 -3.4195,-0.61387 -2.12616,0 -2.1385,0.002 -3.4195,0.61387 -1.63475,0.78057 -3.111634,2.21372 -3.86631,3.75182 -0.476972,0.97212 -0.548158,1.31119 -0.696173,3.31598 -0.0984,1.3328 -0.142504,7.77872 -0.109389,15.988 l 0.05549,13.75485 0.391432,0.98486 c 1.323851,3.33085 4.18758,5.32685 7.651,5.33269 3.59739,0.006 6.51644,-2.08852 7.71545,-5.53627 0.37377,-1.07476 0.39011,-1.33896 0.50269,-8.12731 l 0.11635,-7.01645 h 2.11848 2.11846 l -0.061,7.42746 c -0.053,6.45803 -0.0983,7.556 -0.34728,8.41231 -1.59396,5.48297 -6.61651,9.30459 -12.16974,9.25986 -0.81251,-0.007 -1.9574,-0.11536 -2.54421,-0.24182 z"
       id="path172" />
    <path
       style="fill:#0000ff;stroke:none;stroke-width:0.164143"
       d="m 33.539794,70.770897 c -0.92265,-0.41877 -2.335383,-1.85358 -2.795164,-2.83884 l -0.366236,-0.78481 0.04429,-15.46532 0.04429,-15.46531 0.436702,-0.82731 c 1.099335,-2.08261 3.641248,-3.42401 5.735718,-3.02681 1.98035,0.37557 3.4245,1.44652 4.38785,3.25394 l 0.51936,0.97442 v 6.91205 6.91205 h -2.21593 -2.21593 v -6.54683 -6.54683 l -0.40458,-0.26509 c -0.56341,-0.36916 -1.28768,-0.33409 -1.66279,0.0805 -0.30247,0.3343 -0.31269,0.81437 -0.31269,14.68496 0,15.76218 -0.0691,14.72289 0.99318,14.93535 0.35918,0.0718 0.60809,0.009 0.90059,-0.22793 l 0.40422,-0.32719 0.0464,-6.58033 0.0464,-6.58034 h 2.23158 2.23157 l -0.071,7.02213 c -0.0708,7.00324 -0.0721,7.02433 -0.46431,7.83782 -0.49153,1.01947 -1.89943,2.44927 -2.82577,2.86971 -0.5455,0.24759 -1.06922,0.31883 -2.34389,0.31883 -1.27466,0 -1.79838,-0.0712 -2.34388,-0.31883 z"
       id="path211" />
    <path
       style="fill:#0000ff;stroke-width:0.164143"
       d="m 32.764964,77.670927 c -4.155849,-1.15127 -7.39984,-4.30029 -8.774362,-8.51747 l -0.499696,-1.53312 v -16.07648 -16.07647 l 0.493688,-1.28018 c 1.603307,-4.15751 5.171581,-7.45538 8.97692,-8.29662 1.52291,-0.33667 4.57741,-0.34394 5.88328,-0.014 1.37213,0.34669 3.75228,1.55563 4.91375,2.49583 1.98526,1.60705 3.52611,4.06384 4.1991,6.6952 0.29216,1.14234 0.35536,2.12445 0.48591,7.55056 0.0825,3.43058 0.15256,6.58828 0.15562,7.0171 l 0.006,0.77968 h -2.21008 -2.21008 l -0.0641,-6.03224 c -0.0352,-3.31774 -0.071,-6.60451 -0.0794,-7.30393 -0.014,-1.159 -0.0764,-1.38904 -0.7043,-2.596 -0.86632,-1.66519 -2.17461,-2.99904 -3.78578,-3.85975 l -1.20521,-0.64384 h -2.46214 -2.46214 l -1.177536,0.62929 c -0.676385,0.36148 -1.604218,1.05599 -2.180097,1.63187 -1.325244,1.32524 -1.933712,2.57119 -2.142462,4.38708 -0.09272,0.80653 -0.160861,7.61476 -0.161581,16.1434 l -0.0013,14.74865 0.644592,1.37553 c 1.04312,2.22596 2.715508,3.76056 4.890054,4.48714 1.38931,0.46422 3.70021,0.46923 5.18299,0.0112 3.14539,-0.97151 5.53596,-4.10495 5.5545,-7.28055 0.003,-0.55393 0.0646,-3.33386 0.13629,-6.17763 0.0717,-2.84377 0.13931,-5.55828 0.15019,-6.03224 l 0.0198,-0.86175 h 2.04018 2.04019 l -0.0721,5.21153 c -0.12371,8.94162 -0.17593,10.03357 -0.52793,11.03933 -1.36086,3.88835 -4.39022,6.91597 -8.15841,8.1537 -1.81268,0.59542 -5.16248,0.70481 -6.89399,0.22514 z"
       id="path287" />
  </g>
</svg>
