<?xml version="1.0" standalone="no"?>
<!DOCTYPE svg PUBLIC "-//W3C//DTD SVG 20010904//EN"
 "http://www.w3.org/TR/2001/REC-SVG-20010904/DTD/svg10.dtd">
<svg version="1.0" xmlns="http://www.w3.org/2000/svg"
 width="512.000000pt" height="512.000000pt" viewBox="0 0 512.000000 512.000000"
 preserveAspectRatio="xMidYMid meet">

<g transform="translate(0.000000,512.000000) scale(0.100000,-0.100000)"
fill="#000000" stroke="none">
<path d="M2282 4101 c-40 -10 -112 -38 -160 -61 -70 -35 -103 -60 -177 -134
-102 -103 -144 -168 -189 -293 l-31 -88 -3 -920 c-2 -813 -1 -929 13 -999 71
-349 375 -597 732 -596 299 1 572 186 685 464 52 127 59 200 56 631 l-3 390
-132 3 -133 3 0 -389 c0 -221 -4 -413 -10 -443 -6 -30 -25 -86 -44 -125 -137
-290 -527 -354 -757 -125 -61 61 -97 123 -123 210 -14 48 -16 154 -16 935 0
940 -1 922 50 1029 30 64 102 142 172 188 82 52 164 72 280 67 83 -3 103 -8
172 -41 135 -64 235 -190 265 -335 7 -33 11 -197 11 -442 l0 -390 135 0 135 0
0 389 c0 304 -3 408 -15 476 -48 273 -235 491 -500 581 -107 37 -300 44 -413
15z"/>
<path d="M2379 3706 c-105 -28 -192 -106 -229 -204 -20 -53 -20 -71 -18 -950
l3 -897 24 -50 c32 -63 93 -124 156 -156 43 -21 64 -24 150 -24 89 0 106 3
150 27 62 32 129 103 158 166 21 45 22 61 25 465 l3 417 -136 0 -135 0 0 -388
c0 -364 -1 -390 -18 -405 -26 -24 -75 -21 -98 4 -18 20 -19 51 -22 845 -2 725
0 828 13 854 20 39 59 49 93 23 l27 -20 3 -387 2 -386 136 0 135 0 -3 413 -3
412 -26 55 c-47 97 -121 158 -224 185 -70 18 -104 18 -166 1z"/>
</g>
</svg>
