<?xml version="1.0" standalone="no"?>
<!DOCTYPE svg PUBLIC "-//W3C//DTD SVG 20010904//EN"
 "http://www.w3.org/TR/2001/REC-SVG-20010904/DTD/svg10.dtd">
<svg version="1.0" xmlns="http://www.w3.org/2000/svg"
 width="728.000000pt" height="728.000000pt" viewBox="0 0 728.000000 728.000000"
 preserveAspectRatio="xMidYMid meet">
<metadata>
Created by potrace 1.11, written by Peter Selinger 2001-2013
</metadata>
<g transform="translate(0.000000,728.000000) scale(0.100000,-0.100000)"
fill="#000000" stroke="none">
<path d="M3348 6315 c-2 -1 -23 -5 -48 -8 -25 -4 -56 -9 -70 -12 -14 -3 -41
-8 -60 -11 -57 -11 -200 -63 -275 -101 -254 -128 -454 -334 -579 -596 -24 -51
-50 -112 -57 -137 -7 -25 -14 -49 -16 -55 -13 -42 -34 -153 -40 -215 -9 -95
-9 -2974 0 -3055 30 -272 158 -540 353 -741 63 -65 240 -204 260 -204 7 0 14
-3 16 -8 7 -17 230 -112 298 -127 154 -34 187 -39 315 -39 200 -1 305 15 455
71 193 72 338 167 481 315 197 202 312 445 349 733 4 33 7 366 6 740 l-1 680
-220 1 c-121 0 -225 -2 -231 -4 -9 -2 -12 -177 -12 -662 0 -362 -3 -682 -7
-712 -11 -89 -52 -209 -101 -295 -119 -210 -328 -354 -579 -398 -40 -7 -202
-7 -240 0 -291 55 -518 234 -624 493 -59 145 -56 55 -56 1687 0 825 3 1516 7
1535 57 291 269 532 550 624 73 24 95 27 216 33 217 10 390 -53 581 -213 65
-55 171 -216 205 -312 46 -129 48 -162 48 -869 0 -495 3 -673 12 -675 6 -2
110 -4 231 -4 l220 1 1 680 c1 728 -1 778 -42 925 -124 446 -476 790 -919 898
-44 11 -98 23 -120 27 -39 7 -301 16 -307 10z"/>
<path d="M3390 5619 c-98 -12 -182 -47 -269 -112 -120 -89 -193 -205 -222
-352 -7 -32 -10 -571 -10 -1500 0 -1554 -2 -1503 49 -1618 92 -209 312 -348
540 -341 276 8 492 189 555 464 10 41 13 221 12 720 l0 665 -230 0 -230 0 -5
-655 c-4 -486 -8 -660 -17 -676 -46 -80 -167 -67 -200 21 -9 22 -12 409 -11
1430 0 1545 -4 1447 63 1479 18 9 40 16 48 16 35 0 78 -24 97 -55 20 -32 20
-47 20 -681 l0 -649 230 0 c127 0 231 2 231 5 1 3 3 298 3 655 2 690 0 729
-45 837 -101 237 -350 379 -609 347z"/>
</g>
</svg>
